<?xml version="1.0" encoding="UTF-8" standalone="no"?>
<!-- Created with Inkscape (http://www.inkscape.org/) -->

<svg
   width="170.43646mm"
   height="39.127041mm"
   viewBox="0 0 170.43646 39.127041"
   version="1.1"
   id="svg988"
   inkscape:version="1.1.2 (b8e25be833, 2022-02-05)"
   sodipodi:docname="NOOW_logo_blanco.svg"
   xmlns:inkscape="http://www.inkscape.org/namespaces/inkscape"
   xmlns:sodipodi="http://sodipodi.sourceforge.net/DTD/sodipodi-0.dtd"
   xmlns="http://www.w3.org/2000/svg"
   xmlns:svg="http://www.w3.org/2000/svg">
  <sodipodi:namedview
     id="namedview990"
     pagecolor="#ffffff"
     bordercolor="#666666"
     borderopacity="1.0"
     inkscape:pageshadow="2"
     inkscape:pageopacity="0.0"
     inkscape:pagecheckerboard="0"
     inkscape:document-units="mm"
     showgrid="false"
     inkscape:zoom="0.64052329"
     inkscape:cx="392.64771"
     inkscape:cy="554.23434"
     inkscape:window-width="3072"
     inkscape:window-height="1648"
     inkscape:window-x="2293"
     inkscape:window-y="-874"
     inkscape:window-maximized="1"
     inkscape:current-layer="layer1" />
  <defs
     id="defs985" />
  <g
     inkscape:label="Layer 1"
     inkscape:groupmode="layer"
     id="layer1"
     transform="translate(-1.1141652,-1.5032395)">
    <g
       id="g104"
       transform="matrix(0.35277777,0,0,-0.35277777,120.59065,21.069353)">
      <path
         d="m 0,0 c -0.001,0.57 -0.026,1.135 -0.045,1.702 -0.01,0.299 -0.009,0.601 -0.024,0.9 -0.307,6.265 -1.67,12.349 -4.118,18.228 -2.786,6.724 -6.636,12.65 -11.551,17.778 -4.932,5.127 -10.787,9.226 -17.565,12.278 -6.778,3.051 -14.158,4.577 -22.143,4.577 -3.087,0 -6.139,-0.248 -9.119,-0.78 h -0.125 c -21.646,-2.999 -38.057,-16.253 -52.163,-31.44 l -20.244,-23.74 c -11.959,-14.336 -23.066,-26.56 -36.16,-31.262 -0.283,-0.125 -0.567,-0.213 -0.869,-0.32 -0.585,-0.213 -1.171,-0.39 -1.739,-0.532 -1.188,-0.337 -2.377,-0.603 -3.584,-0.798 -0.496,-0.107 -1.011,-0.178 -1.526,-0.213 -0.709,-0.089 -1.437,-0.16 -2.146,-0.178 -0.621,-0.053 -1.26,-0.071 -1.899,-0.071 -1.78,0 -3.505,0.172 -5.202,0.432 0.066,0.032 -0.066,-0.033 0,0 -2.679,0.408 -5.053,1.228 -7.537,2.293 -4.081,1.756 -7.647,4.152 -10.681,7.203 -3.052,3.052 -5.465,6.618 -7.222,10.699 -1.756,4.081 -2.625,8.463 -2.625,13.112 0,4.648 0.904,9.031 2.714,13.165 1.81,4.134 4.241,7.753 7.275,10.858 3.051,3.105 6.618,5.536 10.698,7.293 4.081,1.756 8.41,2.625 12.953,2.625 4.648,0 9.013,-0.869 13.094,-2.625 4.08,-1.757 7.682,-4.188 10.787,-7.293 l 15.738,-14.957 14.148,16.578 -15.629,14.509 v -0.002 c -0.453,0.433 -0.912,0.855 -1.376,1.26 -4.276,3.868 -9.155,7.026 -14.673,9.51 -6.76,3.052 -14.123,4.578 -22.089,4.578 -7.133,0 -14.035,-1.367 -20.706,-4.117 -6.654,-2.732 -12.544,-6.564 -17.672,-11.461 -5.11,-4.915 -9.226,-10.788 -12.313,-17.601 -3.088,-6.776 -5.11,-14.184 -5.128,-22.188 v -0.142 c 0,-7.15 1.367,-14.07 4.117,-20.741 2.75,-6.689 6.582,-12.58 11.497,-17.707 4.915,-5.128 10.77,-9.226 17.547,-12.278 6.796,-3.052 14.212,-4.578 22.285,-4.578 6.377,0 12.603,1.088 18.709,3.263 -0.003,-0.002 -0.006,-0.004 -0.008,-0.006 0.656,0.231 1.33,0.479 1.987,0.727 5.24,2.057 10.048,4.819 14.421,8.272 8.69,6.227 16.458,14.308 23.885,22.892 l 2.715,3.176 c 1.047,1.242 2.094,2.484 3.123,3.726 0.017,-0.017 0.017,-0.017 0.017,-0.035 l 13.358,15.677 v 0 c 0,0 12.106,13.138 16.35,17.018 10.237,8.737 21.414,14.572 34.946,14.607 h 0.142 c 1.443,-0.006 2.849,-0.124 4.238,-0.296 -0.011,-0.005 -0.022,-0.009 -0.033,-0.014 1.409,-0.168 2.781,-0.432 4.129,-0.769 0.232,-0.06 0.465,-0.114 0.695,-0.178 0.545,-0.15 1.084,-0.316 1.619,-0.494 0.511,-0.173 1.016,-0.364 1.519,-0.563 0.321,-0.126 0.645,-0.237 0.963,-0.373 2.037,-0.877 3.95,-1.923 5.742,-3.136 0.121,-0.082 0.231,-0.178 0.351,-0.262 0.771,-0.536 1.53,-1.091 2.256,-1.691 0.023,-0.019 0.043,-0.041 0.066,-0.06 0.813,-0.676 1.599,-1.388 2.354,-2.144 0.767,-0.766 1.491,-1.565 2.175,-2.394 2.072,-2.524 3.767,-5.342 5.082,-8.438 C -22.48,8.942 -21.593,4.613 -21.575,0 h 0.011 c 0,-0.045 0.007,-0.087 0.007,-0.132 0,-4.649 -0.905,-9.031 -2.715,-13.112 -1.792,-4.081 -4.223,-7.647 -7.275,-10.699 -3.051,-3.051 -6.618,-5.447 -10.698,-7.203 -4.081,-1.757 -8.446,-2.626 -13.112,-2.626 -4.649,0 -9.013,0.869 -13.094,2.626 -4.081,1.756 -7.647,4.152 -10.699,7.203 l -17.37,16.536 -10.486,-12.313 -3.389,-3.979 16.278,-15.823 -0.005,0.073 c 4.709,-4.658 10.193,-8.465 16.533,-11.303 6.76,-3.051 14.177,-4.577 22.232,-4.577 6.937,0 13.697,1.295 20.315,3.867 6.618,2.591 12.544,6.281 17.761,11.09 5.216,4.808 9.403,10.627 12.544,17.441 C -1.579,-16.1 0,-8.507 0,-0.132 0,-0.088 -0.003,-0.044 -0.003,0 Z"
         style="fill:#ffffff;fill-opacity:1;fill-rule:nonzero;stroke:none"
         id="path106" />
    </g>
    <g
       id="g108"
       transform="matrix(0.35277777,0,0,-0.35277777,25.121398,24.551657)">
      <path
         d="m 0,0 -58.596,65.107 h -9.456 V -44.49 h 21.392 v 63.867 l 58.441,-64.952 h 9.611 V 64.022 H 0 Z"
         style="fill:#ffffff;fill-opacity:1;fill-rule:nonzero;stroke:none"
         id="path110" />
    </g>
    <g
       id="g112"
       transform="matrix(0.35277777,0,0,-0.35277777,154.78699,20.087325)">
      <path
         d="M 0,0 -1.614,-5.131 -9.885,-31.398 -27.197,8.431 -56.342,-58.232 h -11.164 l -34.422,109.603 h 22.488 l 19.987,-62.942 27.75,64.018 h 8.838 z"
         style="fill:#ffffff;fill-opacity:1;fill-rule:nonzero;stroke:none"
         id="path114" />
    </g>
    <g
       id="g116"
       transform="matrix(0.35277777,0,0,-0.35277777,161.10474,34.996455)">
      <path
         d="m 0,0 -4.957,-15.757 h -22.56 L -22.56,0 Z"
         style="fill:#ffffff;fill-opacity:1;fill-rule:nonzero;stroke:none"
         id="path118" />
    </g>
    <g
       id="g120"
       transform="matrix(0.35277777,0,0,-0.35277777,171.55063,1.7819688)">
      <path
         d="m 0,0 -26.209,-83.322 h -22.546 l 6.309,20.031 2.035,6.483 1.657,5.262 c 2.079,6.571 4.172,13.243 6.266,19.915 0.843,2.675 1.671,5.335 2.514,7.995 l 1.25,3.983 c 2.094,6.643 4.172,13.228 6.236,19.653 z"
         style="fill:#ffffff;fill-opacity:1;fill-rule:nonzero;stroke:none"
         id="path122" />
    </g>
  </g>
</svg>
