<?xml version="1.0" encoding="UTF-8" standalone="no"?>
<!-- Created with Inkscape (http://www.inkscape.org/) -->

<svg
   width="87.36718mm"
   height="39.04689mm"
   viewBox="0 0 87.36718 39.04689"
   version="1.1"
   id="svg984"
   inkscape:version="1.1.2 (b8e25be833, 2022-02-05)"
   sodipodi:docname="NW_negro.svg"
   xmlns:inkscape="http://www.inkscape.org/namespaces/inkscape"
   xmlns:sodipodi="http://sodipodi.sourceforge.net/DTD/sodipodi-0.dtd"
   xmlns="http://www.w3.org/2000/svg"
   xmlns:svg="http://www.w3.org/2000/svg">
  <sodipodi:namedview
     id="namedview986"
     pagecolor="#ffffff"
     bordercolor="#666666"
     borderopacity="1.0"
     inkscape:pageshadow="2"
     inkscape:pageopacity="0.0"
     inkscape:pagecheckerboard="0"
     inkscape:document-units="mm"
     showgrid="false"
     inkscape:zoom="0.64052329"
     inkscape:cx="386.40281"
     inkscape:cy="549.55067"
     inkscape:window-width="3072"
     inkscape:window-height="1648"
     inkscape:window-x="2293"
     inkscape:window-y="-874"
     inkscape:window-maximized="1"
     inkscape:current-layer="layer1" />
  <defs
     id="defs981" />
  <g
     inkscape:label="Layer 1"
     inkscape:groupmode="layer"
     id="layer1"
     transform="translate(-2.9937402,-2.7825367)">
    <g
       id="g122"
       transform="matrix(0.35277777,0,0,-0.35277777,27.000973,25.750839)"
       style="fill:#ffffff;fill-opacity:1">
      <path
         d="m 0,0 -58.596,65.107 h -9.456 V -44.49 h 21.392 v 63.867 l 58.441,-64.952 h 9.611 V 64.022 H 0 Z"
         style="fill:#ffffff;fill-opacity:1;fill-rule:nonzero;stroke:none"
         id="path124" />
    </g>
    <g
       id="g126"
       transform="matrix(0.35277777,0,0,-0.35277777,73.597307,21.286471)"
       style="fill:#ffffff;fill-opacity:1">
      <path
         d="M 0,0 -1.614,-5.131 -9.885,-31.398 -27.197,8.431 -56.343,-58.232 h -11.163 l -34.422,109.603 h 22.487 l 19.988,-62.942 27.749,64.018 h 8.838 z"
         style="fill:#ffffff;fill-opacity:1;fill-rule:nonzero;stroke:none"
         id="path128" />
    </g>
    <g
       id="g130"
       transform="matrix(0.35277777,0,0,-0.35277777,79.915063,36.195601)"
       style="fill:#ffffff;fill-opacity:1">
      <path
         d="m 0,0 -4.957,-15.757 h -22.56 L -22.56,0 Z"
         style="fill:#ffffff;fill-opacity:1;fill-rule:nonzero;stroke:none"
         id="path132" />
    </g>
    <g
       id="g134"
       transform="matrix(0.35277777,0,0,-0.35277777,90.360919,2.9811499)"
       style="fill:#ffffff;fill-opacity:1">
      <path
         d="m 0,0 -26.209,-83.322 h -22.546 l 6.309,20.031 2.035,6.483 1.657,5.262 c 2.079,6.571 4.172,13.243 6.265,19.915 0.844,2.675 1.672,5.335 2.515,7.995 l 1.25,3.983 c 2.094,6.643 4.172,13.228 6.236,19.653 z"
         style="fill:#ffffff;fill-opacity:1;fill-rule:nonzero;stroke:none"
         id="path136" />
    </g>
  </g>
</svg>
