<?xml version="1.0" encoding="UTF-8" standalone="no"?>
<!-- Creator: CorelDRAW -->

<svg
   xml:space="preserve"
   width="1.5099295in"
   height="1.5720454in"
   version="1.1"
   style="clip-rule:evenodd;fill-rule:evenodd;image-rendering:optimizeQuality;shape-rendering:geometricPrecision;text-rendering:geometricPrecision"
   viewBox="0 0 1509.9295 1572.0454"
   id="svg15"
   sodipodi:docname="ADN.svg"
   inkscape:version="1.1.2 (b8e25be833, 2022-02-05)"
   xmlns:inkscape="http://www.inkscape.org/namespaces/inkscape"
   xmlns:sodipodi="http://sodipodi.sourceforge.net/DTD/sodipodi-0.dtd"
   xmlns="http://www.w3.org/2000/svg"
   xmlns:svg="http://www.w3.org/2000/svg"><sodipodi:namedview
   id="namedview17"
   pagecolor="#ffffff"
   bordercolor="#666666"
   borderopacity="1.0"
   inkscape:pageshadow="2"
   inkscape:pageopacity="0.0"
   inkscape:pagecheckerboard="0"
   inkscape:document-units="in"
   showgrid="false"
   inkscape:zoom="4.3884448"
   inkscape:cx="99.237889"
   inkscape:cy="59.132566"
   inkscape:window-width="2560"
   inkscape:window-height="1373"
   inkscape:window-x="-9"
   inkscape:window-y="-9"
   inkscape:window-maximized="1"
   inkscape:current-layer="Layer_x0020_1" />
 <defs
   id="defs9">
  <style
   type="text/css"
   id="style2">
   <![CDATA[
    .fil0 {fill:url(#id0)}
   ]]>
  </style>
  <linearGradient
   id="id0"
   gradientUnits="userSpaceOnUse"
   x1="-310.96237"
   y1="885.04694"
   x2="-457.88605"
   y2="1836.0244"
   gradientTransform="translate(0.00462026,16.94)">
   <stop
   offset="0"
   style="stop-opacity:1; stop-color:#FFB800"
   id="stop4" />
   <stop
   offset="1"
   style="stop-opacity:1; stop-color:#FF5329"
   id="stop6" />
  </linearGradient>
 </defs>
 <g
   id="Layer_x0020_1"
   inkscape:label="Layer 1"
   inkscape:groupmode="layer"
   transform="translate(422.63304,-54.916724)">
  <metadata
   id="CorelCorpID_0Corel-Layer" />
  <path
   class="fil0"
   d="M 960.14404,404.35385 711.1453,175.84436 C 676.25188,143.8222 724.88689,90.82634 759.78031,122.8485 L 1008.7791,351.358 c 34.886,32.0154 -13.749,85.01125 -48.63506,52.99585 z M 808.40669,494.54994 641.70514,341.56568 c -34.89342,-32.02216 13.74159,-85.01801 48.63501,-52.99585 L 857.0417,441.55408 c 34.93026,32.05597 -13.80053,84.96393 -48.63501,52.99586 z M 423.27249,989.36385 174.27375,760.85436 c -34.89342,-32.02217 13.73483,-85.01065 48.62825,-52.98849 l 248.99874,228.50949 c 34.88605,32.0154 -13.7422,85.00394 -48.62825,52.98849 z M 271.53514,1079.5599 104.83359,926.57568 c -34.893419,-32.02216 13.73483,-85.01065 48.62825,-52.98848 l 166.70155,152.9842 c 34.90078,32.029 -13.82324,84.9296 -48.62825,52.9885 z M 500.04463,830.5612 333.34309,677.57694 c -34.89342,-32.02216 13.73482,-85.01065 48.62825,-52.98848 l 166.70154,152.98425 c 34.93026,32.05597 -13.79377,84.95656 -48.62825,52.98849 z m -622.30509,753.2507 -248.99874,-228.5095 c -34.89342,-32.0222 13.73483,-85.0107 48.62825,-52.9885 l 248.99874,228.5095 c 34.893421,32.0221 -13.734828,85.0106 -48.62825,52.9885 z M -45.393657,1424.9061 -212.0952,1271.9218 c -34.89342,-32.0221 13.74159,-85.018 48.63501,-52.9958 L 3.2413531,1371.9102 c 34.9007879,32.0289 -13.8300021,84.9369 -48.6350101,52.9959 z M 563.84473,586.34386 C 428.26779,566.08043 244.04225,576.22889 144.62146,678.11589 38.440724,786.91048 55.369016,968.15562 86.761809,1105.6423 392.66486,1147.7781 601.7473,1058.6319 583.5013,725.11266 581.12164,681.69476 574.55939,631.52031 563.84534,586.35799 Z M 101.88283,1179.945 c 20.55346,126.847 40.1684,352.8912 -70.843253,439.1599 -36.9035027,28.6764 -81.392814,-28.2222 -43.580618,-57.1641 54.696691,-41.8681 59.905888,-154.1933 58.785962,-216.7464 -0.992828,-55.9623 -7.266015,-117.544 -18.391724,-174.4445 -100.990825,-9.5882 -322.921277,-17.6462 -384.693717,70.1193 -27.27032,38.7521 -85.79717,-2.5397 -58.88319,-41.1845 47.68796,-68.4692 146.06923,-92.3168 224.20346,-101.2748 66.94288,-7.6781 135.900024,-6.6806 203.098503,-1.4744 C -21.261262,937.93849 -26.567316,750.61044 93.440609,627.73977 205.50907,512.98802 389.08126,493.71629 543.30633,510.81565 518.70971,409.65673 515.31187,304.07772 543.6847,202.93909 c 11.8535,-42.25923 34.7591,-99.10538 62.58449,-134.158442 29.39665,-37.031432 85.96558,7.784079 56.1395,44.869322 -22.21745,28.5134 -41.44256,78.43546 -50.83791,112.49954 -27.0744,98.24481 -19.80421,200.87618 9.4328,297.68852 99.06367,20.5916 202.05673,18.94671 297.67283,-16.39646 33.10088,-12.22777 81.0359,-35.51732 107.55969,-59.99726 34.3656,-32.56637 83.7491,19.9606 49.4739,52.32492 -32.5881,30.77732 -87.14459,58.42767 -128.30256,73.88881 -98.3156,36.92407 -203.77793,42.54634 -306.64371,26.70416 30.13676,152.25484 26.61153,336.64952 -78.03756,458.0472 -111.94436,129.85 -299.79544,139.9559 -460.83658,121.5282 z"
   id="path12"
   sodipodi:nodetypes="ssssssssssssssssssssssssssssssssssscccccccccccccccccccccccccccccc"
   style="fill:#000000;fill-opacity:1" />
 </g>
</svg>
