<?xml version="1.0" encoding="UTF-8" standalone="no"?>
<!-- Creator: CorelDRAW -->

<svg
   xml:space="preserve"
   width="0.63751018in"
   height="1.6727799in"
   version="1.1"
   style="clip-rule:evenodd;fill-rule:evenodd;image-rendering:optimizeQuality;shape-rendering:geometricPrecision;text-rendering:geometricPrecision"
   viewBox="0 0 637.51017 1672.7799"
   id="svg15"
   sodipodi:docname="ADN.svg"
   inkscape:version="1.1.2 (b8e25be833, 2022-02-05)"
   xmlns:inkscape="http://www.inkscape.org/namespaces/inkscape"
   xmlns:sodipodi="http://sodipodi.sourceforge.net/DTD/sodipodi-0.dtd"
   xmlns="http://www.w3.org/2000/svg"
   xmlns:svg="http://www.w3.org/2000/svg"><sodipodi:namedview
   id="namedview17"
   pagecolor="#ffffff"
   bordercolor="#666666"
   borderopacity="1.0"
   inkscape:pageshadow="2"
   inkscape:pageopacity="0.0"
   inkscape:pagecheckerboard="0"
   inkscape:document-units="in"
   showgrid="false"
   inkscape:zoom="4.3884448"
   inkscape:rotation="15"
   inkscape:cx="58.649423"
   inkscape:cy="62.606916"
   inkscape:window-width="1920"
   inkscape:window-height="1000"
   inkscape:window-x="-11"
   inkscape:window-y="-11"
   inkscape:window-maximized="1"
   inkscape:current-layer="Layer_x0020_1" />
 <defs
   id="defs9">
  <style
   type="text/css"
   id="style2">
   <![CDATA[
    .fil0 {fill:url(#id0)}
   ]]>
  </style>
  <linearGradient
   id="id0"
   gradientUnits="userSpaceOnUse"
   x1="-310.96237"
   y1="885.04694"
   x2="-457.88605"
   y2="1836.0244"
   gradientTransform="translate(0.00462026,16.94)">
   <stop
   offset="0"
   style="stop-opacity:1; stop-color:#FFB800"
   id="stop4" />
   <stop
   offset="1"
   style="stop-opacity:1; stop-color:#FF5329"
   id="stop6" />
  </linearGradient>
 </defs>
 <g
   id="Layer_x0020_1"
   inkscape:label="Layer 1"
   inkscape:groupmode="layer"
   transform="translate(-0.00462026,-16.94)">
  <metadata
   id="CorelCorpID_0Corel-Layer" />
  <path
   class="fil0"
   d="M 487.74,88.87 H 149.78 c -47.36,0 -47.36,-71.93 0,-71.93 h 337.96 c 47.35,0 47.35,71.93 0,71.93 z M 436.93,257.92 H 210.67 c -47.36,0 -47.36,-71.93 0,-71.93 h 226.26 c 47.41,0 47.28,71.93 0,71.93 z m 50.81,624.97 H 149.78 c -47.36,0 -47.36,-71.92 0,-71.92 h 337.96 c 47.35,0 47.35,71.92 0,71.92 z m -50.81,169.05 H 210.67 c -47.36,0 -47.36,-71.92 0,-71.92 h 226.26 c 47.37,0 47.24,71.92 0,71.92 z m 0,-337.96 H 210.67 c -47.36,0 -47.36,-71.92 0,-71.92 h 226.26 c 47.41,0 47.28,71.92 0,71.92 z m 50.81,975.74 H 149.78 c -47.36,0 -47.36,-71.92 0,-71.92 h 337.96 c 47.36,0 47.36,71.92 0,71.92 z M 436.93,1520.67 H 210.67 c -47.36,0 -47.36,-71.93 0,-71.93 h 226.26 c 47.37,0 47.24,71.93 0,71.93 z M 318.81,490.91 C 205.22,567.65 76.35,699.69 71.99,841.98 67.32,993.93 202.34,1116.02 318.43,1196.09 572.3,1020.3 666.07,813.25 427.12,579.86 396.01,549.48 357.25,516.95 318.82,490.92 Z m 61,749.7 c 100.91,79.56 268.2,232.84 244.74,371.46 -7.8,46.08 -79.05,34.24 -70.76,-12.65 11.99,-67.83 -60.12,-154.11 -103.24,-199.44 -38.57,-40.56 -84.83,-81.69 -131.5,-116.09 -80.89,61.22 -249.85,205.34 -236.02,311.77 6.11,46.99 -64.93,56.14 -71.23,9.47 C 0.64,1522.44 57,1438.35 108.51,1378.92 152.64,1328 204.12,1282.11 257.15,1240.51 125.45,1145.57 -5.12,1011.14 0.22,839.47 5.2,679.15 127.42,540.83 252.61,449.15 166.09,391.25 92.2,315.76 44.72,222.06 24.88,182.91 3.32,125.54 0.12,80.9 -3.26,33.74 68.72,28.51 71.82,76 c 2.91,36.03 22.5,85.81 38.61,117.26 46.48,90.69 121.23,161.39 208.23,212.95 86.91,-51.81 161.68,-122.66 208.23,-213.35 16.12,-31.39 35.69,-80.96 38.68,-116.93 3.3,-47.23 75.2,-41.92 71.83,5.1 -3.2,44.71 -24.7,101.97 -44.57,141.19 -47.47,93.68 -121.37,169.13 -207.87,227.01 125.15,91.8 247.23,230.04 252.21,390.24 5.32,171.36 -126.25,305.82 -257.36,401.13 z"
   id="path12"
   sodipodi:nodetypes="ssssssssssssssssssssssssssssssssssscccccccccccccccccccccccccccccc"
   style="fill-opacity:1;fill:#000000" />
 </g>
</svg>
