<?xml version="1.0" encoding="UTF-8" standalone="no"?>
<!-- Creator: CorelDRAW -->

<svg
   xml:space="preserve"
   width="1.6736966in"
   height="0.63955861in"
   version="1.1"
   style="clip-rule:evenodd;fill-rule:evenodd;image-rendering:optimizeQuality;shape-rendering:geometricPrecision;text-rendering:geometricPrecision"
   viewBox="0 0 1673.6966 639.55859"
   id="svg15"
   sodipodi:docname="ADN.svg"
   inkscape:version="1.1.2 (b8e25be833, 2022-02-05)"
   xmlns:inkscape="http://www.inkscape.org/namespaces/inkscape"
   xmlns:sodipodi="http://sodipodi.sourceforge.net/DTD/sodipodi-0.dtd"
   xmlns="http://www.w3.org/2000/svg"
   xmlns:svg="http://www.w3.org/2000/svg"><sodipodi:namedview
   id="namedview17"
   pagecolor="#ffffff"
   bordercolor="#666666"
   borderopacity="1.0"
   inkscape:pageshadow="2"
   inkscape:pageopacity="0.0"
   inkscape:pagecheckerboard="0"
   inkscape:document-units="in"
   showgrid="false"
   inkscape:zoom="2.1942224"
   inkscape:cx="18.229693"
   inkscape:cy="-2.7344539"
   inkscape:window-width="1920"
   inkscape:window-height="1000"
   inkscape:window-x="-11"
   inkscape:window-y="-11"
   inkscape:window-maximized="1"
   inkscape:current-layer="Layer_x0020_1" />
 <defs
   id="defs9">
  <style
   type="text/css"
   id="style2">
   <![CDATA[
    .fil0 {fill:url(#id0)}
   ]]>
  </style>
  <linearGradient
   id="id0"
   gradientUnits="userSpaceOnUse"
   x1="-310.96237"
   y1="885.04694"
   x2="-457.88605"
   y2="1836.0244"
   gradientTransform="translate(0.00462026,16.94)">
   <stop
   offset="0"
   style="stop-opacity:1; stop-color:#FFB800"
   id="stop4" />
   <stop
   offset="1"
   style="stop-opacity:1; stop-color:#FF5329"
   id="stop6" />
  </linearGradient>
 </defs>
 <g
   id="Layer_x0020_1"
   inkscape:label="Layer 1"
   inkscape:groupmode="layer"
   transform="translate(522.81766,-520.57974)">
  <metadata
   id="CorelCorpID_0Corel-Layer" />
  <path
   class="fil0"
   d="m 1078.0266,1010.3339 0.9224,-337.95875 c 0.1292,-47.35982 72.0589,-47.16351 71.9297,0.19632 l -0.9224,337.95873 c -0.1292,47.3498 -72.059,47.1535 -71.9297,-0.1963 z M 909.11588,959.0627 909.7334,732.80354 c 0.12926,-47.35982 72.05899,-47.1635 71.92973,0.19632 l -0.61752,226.25916 c -0.12939,47.40978 -72.05877,47.08348 -71.92973,-0.19632 z m -625.10635,49.1041 0.92238,-337.95874 c 0.12926,-47.35983 72.04899,-47.16353 71.91973,0.19629 l -0.92238,337.95875 c -0.12923,47.3498 -72.049,47.1536 -71.91973,-0.1963 z m -168.91067,-51.27121 0.6175,-226.25914 c 0.12926,-47.35982 72.04899,-47.16354 71.91973,0.19629 l -0.61749,226.25913 c -0.12934,47.36983 -72.04872,47.04363 -71.91974,-0.19628 z m 337.95871,0.9224 0.61753,-226.25915 c 0.12926,-47.35983 72.04899,-47.16355 71.91973,0.19629 l -0.61752,226.25915 c -0.1294,47.40982 -72.04878,47.08352 -71.91974,-0.19629 z m -975.87506,48.14681 0.92239,-337.95878 c 0.12929,-47.35985 72.04903,-47.16357 71.91974,0.19628 l -0.92239,337.9587 c -0.12921,47.3598 -72.04895,47.1636 -71.91974,-0.1962 z m 169.18805,-50.34846 0.61756,-226.25919 c 0.12921,-47.35978 72.05898,-47.16349 71.92969,0.19636 l -0.61749,226.25912 c -0.12927,47.36977 -72.05867,47.04347 -71.92976,-0.19629 z M 676.44913,840.30724 C 600.01943,726.50823 468.33164,597.27833 326.05407,592.53001 174.11738,587.44531 51.659331,722.13159 -28.727216,838.00263 146.36926,1092.3515 353.16255,1186.6862 587.20385,948.37408 617.66865,917.34711 650.30431,878.67604 676.4391,840.31722 Z M -73.41458,899.2609 c -79.83507,100.69245 -233.57111,267.5635 -372.12656,243.7253 -46.05852,-7.9258 -34.02409,-79.1432 12.8431,-70.7253 67.797,12.1751 154.27347,-59.6991 199.72099,-102.69523 40.66516,-38.45919 81.92123,-84.60674 116.44847,-131.18267 -60.99901,-81.05678 -204.6573,-250.40953 -311.12466,-236.87004 -47.00653,5.98176 -55.96262,-65.08295 -9.27556,-71.25558 82.72011,-10.93424 166.65603,45.65501 225.94517,97.32707 50.79936,44.26881 96.54869,95.87386 138.003856,149.01715 C 22.319292,645.16123 157.10516,514.95861 328.75994,520.76712 c 160.30582,5.41754 298.29172,128.0146 389.62971,253.45435 58.13591,-86.36165 133.8273,-160.04535 227.65654,-207.26943 39.204,-19.73308 96.63261,-41.13643 141.28121,-44.21458 47.169,-3.25127 52.2026,68.74274 4.7043,71.71311 -36.0378,2.81165 -85.8711,22.26572 -117.36496,38.28982 -90.81651,46.23231 -161.72027,120.78908 -213.51752,207.64802 51.57261,87.05109 122.21828,162.01419 212.78089,208.81149 31.34589,16.2056 80.86229,35.9109 116.82399,38.999 47.2208,3.4289 41.7146,75.3142 -5.296,71.8158 -44.7011,-3.322 -101.90222,-24.9782 -141.06784,-44.9551 C 850.84016,1067.3341 775.59213,993.22841 717.94843,906.57077 625.80721,1031.4697 487.23453,1153.172 327.02157,1157.7147 155.64766,1162.567 21.547218,1030.6306 -73.404557,899.26091 Z"
   id="path12"
   sodipodi:nodetypes="ssssssssssssssssssssssssssssssssssscccccccccccccccccccccccccccccc"
   style="fill:#000000;fill-opacity:1" />
 </g>
</svg>
