<?xml version="1.0" encoding="UTF-8" standalone="no"?>
<!-- Creator: CorelDRAW -->

<svg
   xml:space="preserve"
   width="0.6407758in"
   height="1.6742781in"
   version="1.1"
   style="clip-rule:evenodd;fill-rule:evenodd;image-rendering:optimizeQuality;shape-rendering:geometricPrecision;text-rendering:geometricPrecision"
   viewBox="0 0 640.77579 1674.2781"
   id="svg15"
   sodipodi:docname="ADN.svg"
   inkscape:version="1.1.2 (b8e25be833, 2022-02-05)"
   xmlns:inkscape="http://www.inkscape.org/namespaces/inkscape"
   xmlns:sodipodi="http://sodipodi.sourceforge.net/DTD/sodipodi-0.dtd"
   xmlns="http://www.w3.org/2000/svg"
   xmlns:svg="http://www.w3.org/2000/svg"><sodipodi:namedview
   id="namedview17"
   pagecolor="#ffffff"
   bordercolor="#666666"
   borderopacity="1.0"
   inkscape:pageshadow="2"
   inkscape:pageopacity="0.0"
   inkscape:pagecheckerboard="0"
   inkscape:document-units="in"
   showgrid="false"
   inkscape:zoom="2.1942224"
   inkscape:cx="-31.44622"
   inkscape:cy="46.941459"
   inkscape:window-width="3072"
   inkscape:window-height="1648"
   inkscape:window-x="2293"
   inkscape:window-y="-874"
   inkscape:window-maximized="1"
   inkscape:current-layer="Layer_x0020_1" />
 <defs
   id="defs9">
  <style
   type="text/css"
   id="style2">
   <![CDATA[
    .fil0 {fill:url(#id0)}
   ]]>
  </style>
  <linearGradient
   id="id0"
   gradientUnits="userSpaceOnUse"
   x1="-310.96237"
   y1="885.04694"
   x2="-457.88605"
   y2="1836.0244"
   gradientTransform="translate(0.00462026,16.94)">
   <stop
   offset="0"
   style="stop-opacity:1; stop-color:#FFB800"
   id="stop4" />
   <stop
   offset="1"
   style="stop-opacity:1; stop-color:#FF5329"
   id="stop6" />
  </linearGradient>
 </defs>
 <g
   id="Layer_x0020_1"
   inkscape:label="Layer 1"
   inkscape:groupmode="layer"
   transform="translate(3.4274932,-3.2121784)">
  <metadata
   id="CorelCorpID_0Corel-Layer" />
  <path
   class="fil0"
   d="m 149.56739,1605.5604 337.95662,-1.5138 c 47.35952,-0.2121 47.68172,71.7171 0.32219,71.9293 l -337.9566,1.5138 c -47.3495,0.2121 -47.67171,-71.7172 -0.32221,-71.9293 z m 50.05228,-169.2759 226.25774,-1.0135 c 47.35952,-0.2121 47.6817,71.7172 0.32218,71.9293 l -226.25773,1.0135 c -47.40948,0.2124 -47.60169,-71.7175 -0.32219,-71.9293 z m -53.60888,-624.73613 337.95661,-1.5138 c 47.35953,-0.21214 47.68167,71.70714 0.32215,71.91927 l -337.95662,1.51381 c -47.349503,0.21209 -47.671739,-71.70722 -0.32214,-71.91928 z m 50.05229,-169.27586 226.25772,-1.0135 c 47.35952,-0.21214 47.68167,71.70714 0.32214,71.91928 l -226.2577,1.0135 c -47.36953,0.21213 -47.56177,-71.70773 -0.32216,-71.91928 z m 1.51379,337.95657 226.25772,-1.01346 c 47.35954,-0.21214 47.68169,71.70718 0.32215,71.91928 l -226.25772,1.0135 c -47.40952,0.2123 -47.60166,-71.70754 -0.32215,-71.91932 z M 142.39675,4.7264439 480.3534,3.2126466 c 47.35955,-0.212105 47.68171,71.7071814 0.32216,71.9192864 L 142.71899,76.64573 C 95.359488,76.857914 95.037252,4.9386286 142.39675,4.7264439 Z m 51.56674,168.8207161 226.25776,-1.01343 c 47.35948,-0.21219 47.6817,71.71713 0.32215,71.92923 l -226.25769,1.01351 c -47.36947,0.2122 -47.56168,-71.71769 -0.32222,-71.92931 z M 316.69488,1202.7678 C 429.93999,1125.5197 558.21727,992.90382 561.93986,850.59572 565.9292,698.62632 430.36368,577.14234 313.91619,497.59313 60.836105,674.51852 -32.005482,881.98645 207.98752,1114.3038 c 31.24577,30.2404 70.15109,62.5964 108.69731,88.454 z M 252.33738,453.34851 C 151.07206,374.24135 -16.902852,221.71219 5.9359564,82.9885 13.529539,36.874044 84.831839,48.394793 76.751998,95.321445 65.065926,163.20445 137.56162,249.16057 180.88424,294.29697 c 38.75133,40.38687 85.19507,81.30922 132.01868,115.49982 80.61496,-61.58172 248.92776,-206.45705 234.62115,-312.824045 -6.32045,-46.962189 64.67786,-56.430314 71.18687,-9.788962 11.53024,82.639137 -44.45249,166.980807 -95.69583,226.640877 -43.90147,51.11715 -95.1754,97.23729 -148.01848,139.07446 132.12392,94.3491 263.29475,228.19291 258.72376,399.8851 -4.26184,160.34068 -125.86105,299.20678 -250.63913,391.44658 86.77847,57.5119 161.00588,132.6702 208.9051,226.1566 20.01516,39.0607 41.83193,96.3335 45.23185,140.9588 3.5912,47.1443 -68.36466,52.6967 -71.67734,5.2211 -3.07135,-36.0166 -22.88414,-85.7084 -39.13484,-117.0859 -46.88576,-90.4809 -121.9517,-160.8454 -209.18176,-212.0152 -86.67707,52.1988 -161.12898,123.383 -207.27224,214.2806 -15.979228,31.4619 -35.327079,81.1191 -38.15587,117.1021 -3.088421,47.2443 -75.0115451,42.2564 -71.8521101,-4.7782 C 2.9437374,1569.3468 24.187043,1511.9911 43.8811,1472.6825 90.931007,1378.7908 164.49235,1303.0105 250.73222,1244.7436 125.17233,1153.5052 2.4742998,1015.8134 -3.2231714,855.63731 -9.3106878,684.30283 121.65563,549.25481 252.33745,453.35853 Z"
   id="path12"
   sodipodi:nodetypes="ssssssssssssssssssssssssssssssssssscccccccccccccccccccccccccccccc"
   style="fill:#000000;fill-opacity:1" />
 </g>
</svg>
