<?xml version="1.0" encoding="UTF-8" standalone="no"?>
<!-- Generator: Adobe Illustrator 22.1.0, SVG Export Plug-In . SVG Version: 6.00 Build 0)  -->

<svg
   version="1.1"
   x="0px"
   y="0px"
   viewBox="0 0 19.999119 29.997761"
   xml:space="preserve"
   id="svg9"
   sodipodi:docname="lightbulb.svg"
   width="19.999119"
   height="29.997761"
   inkscape:version="1.1.2 (b8e25be833, 2022-02-05)"
   xmlns:inkscape="http://www.inkscape.org/namespaces/inkscape"
   xmlns:sodipodi="http://sodipodi.sourceforge.net/DTD/sodipodi-0.dtd"
   xmlns="http://www.w3.org/2000/svg"
   xmlns:svg="http://www.w3.org/2000/svg"><defs
   id="defs13" /><sodipodi:namedview
   id="namedview11"
   pagecolor="#ffffff"
   bordercolor="#666666"
   borderopacity="1.0"
   inkscape:pageshadow="2"
   inkscape:pageopacity="0.0"
   inkscape:pagecheckerboard="0"
   showgrid="false"
   inkscape:zoom="3.595"
   inkscape:cx="-100.83449"
   inkscape:cy="-1.1126565"
   inkscape:window-width="1920"
   inkscape:window-height="1000"
   inkscape:window-x="-11"
   inkscape:window-y="-11"
   inkscape:window-maximized="1"
   inkscape:current-layer="Layer_1" />
<g
   id="Layer_1"
   transform="translate(-15.000881,-11.002238)">
	
	<path
   d="m 24.709,11.004 c -5.189,0.147 -9.542,4.488 -9.703,9.677 -0.096,3.021 1.162,5.89 3.448,7.869 C 20.072,29.95 21,31.911 21,34 v 1 4 h 3 v 2 h 2 v -2 h 3 v -4.068 -1 c 0,-2 0.947,-3.979 2.599,-5.428 C 33.761,26.606 35,23.872 35,21 c 0,-2.726 -1.076,-5.272 -3.031,-7.172 -1.954,-1.899 -4.54,-2.873 -7.26,-2.824 z M 27,37 h -4 v -2 h 4 z m 3.28,-10 c -1.82,1.598 -2.963,3.726 -3.223,6 H 26 V 23.414 L 28.707,20.707 27.293,19.293 25,21.586 22.707,19.293 21.293,20.707 24,23.414 V 33 h -1.05 c -0.245,-2.261 -1.376,-4.395 -3.188,-5.962 -1.829,-1.584 -2.834,-3.878 -2.758,-6.295 0.129,-4.15 3.61,-7.622 7.761,-7.739 2.188,-0.075 4.246,0.738 5.81,2.258 C 32.139,16.782 33,18.819 33,21 c 0,2.296 -0.991,4.483 -2.72,6 z"
   id="path4" />
</g>
<g
   id="g7"
   transform="translate(-15.000881,-11.002238)">
</g>
</svg>
